<?xml version="1.0" encoding="utf-8"?>
<!-- Generator: Adobe Illustrator 22.0.0, SVG Export Plug-In . SVG Version: 6.00 Build 0)  -->
<svg version="1.1" id="Layer_1" xmlns="http://www.w3.org/2000/svg" xmlns:xlink="http://www.w3.org/1999/xlink" x="0px" y="0px"
	 viewBox="0 0 2256.7 951.2" style="enable-background:new 0 0 2256.7 951.2;" xml:space="preserve">
<style type="text/css">
	.st0{fill:#29323C;}
	.st1{fill:#72CDDE;}
</style>
<g>
	<g>
		<path class="st0" d="M867.8,425c45.7,0,82.2,36.5,82.2,82.2c0,45.7-36.5,82.2-82.2,82.2c-45.7,0-82.2-36.5-82.2-82.2
			C785.6,461.5,822.1,425,867.8,425z M867.8,564.7c31.9,0,57.5-25.6,57.5-57.5s-25.6-57.5-57.5-57.5c-31.9,0-57.5,25.6-57.5,57.5
			S835.9,564.7,867.8,564.7z"/>
		<path class="st0" d="M1097.8,449.6c-31.9,0-57.5,25.6-57.5,57.5v82.2h-24.6v-82.2c0-45.7,36.5-82.2,82.2-82.2V449.6z"/>
		<path class="st0" d="M1214.9,589.3c-45.7,0-82.2-36.5-82.2-82.2c0-45.7,36.5-82.2,82.2-82.2c45.7,0,82.2,36.5,82.2,82.2v82.2
			h-24.6v-82.2c0-31.9-25.6-57.5-57.5-57.5c-31.9,0-57.5,25.6-57.5,57.5s25.6,57.5,57.5,57.5V589.3z M1194.5,415.8l-13.1-18.7
			l53.9-37.8l13.1,18.7L1194.5,415.8z"/>
		<path class="st0" d="M1445,449.6c-31.9,0-57.5,25.6-57.5,57.5s25.6,57.5,57.5,57.5c31.9,0,57.5-25.6,57.5-57.5h24.7
			c0,45.7-36.5,82.2-82.2,82.2c-45.7,0-82.2-36.5-82.2-82.2c0-45.7,36.5-82.2,82.2-82.2V449.6z"/>
		<path class="st0" d="M1732.6,425h24.7v82.2c0,45.7-36.5,82.2-82.2,82.2s-82.2-36.5-82.2-82.2V425h24.7v82.2
			c0,31.9,25.6,57.5,57.5,57.5s57.5-25.6,57.5-57.5V425z"/>
		<path class="st0" d="M1823,589.3v-230h24.7v230H1823z"/>
		<path class="st0" d="M1995.6,425c45.7,0,82.2,36.5,82.2,82.2c0,45.7-36.5,82.2-82.2,82.2s-82.2-36.5-82.2-82.2
			C1913.4,461.5,1949.9,425,1995.6,425z M1995.6,564.7c31.9,0,57.5-25.6,57.5-57.5s-25.6-57.5-57.5-57.5s-57.5,25.6-57.5,57.5
			S1963.7,564.7,1995.6,564.7z"/>
	</g>
	<g>
		<g>
			<g>
				<path class="st1" d="M585.6,477.7c0.2-49.1-12.3-91.5-36.8-130.1c-14.4-22.7-32.5-42.3-53.9-59c-34.2-26.7-72.8-42.5-115.6-48.1
					c-9.5-1.2-19-2.1-28.6-1.9c-4.3,0.1-7.6-1.9-9.3-5.9c-1.7-3.8-0.9-7.3,1.8-10.5c2.2-2.7,5.3-2.8,8.4-2.8c16.6,0,33,1.6,49.3,4.9
					c25.5,5,49.5,14,72.2,26.5c26.2,14.4,49.2,32.9,68.9,55.6c23.7,27.3,40.9,58,51.6,92.6c9.4,30.2,13.1,61.1,10.9,92.5
					c-2.6,37.7-12.9,73.3-31.5,106.5c-18,32.2-41.6,59.3-71.1,81.3c-26.8,20-56.6,34.1-89,42.4c-20,5.1-40.5,7.7-61.3,7.5
					c-6.9-0.1-11-3.6-11-9.3c0-6.1,4.1-9.8,11.2-9.9c36.4-0.4,71-8.4,103.6-24.8c34.9-17.6,63.6-42.3,86.4-74.1
					c20.2-28.2,33.3-59.4,40-93.3C584.6,503.6,586.1,489.1,585.6,477.7z"/>
			</g>
			<g>
				<path class="st1" d="M575.6,474.9c-5,95-48,166-135.8,205.5c-65.5,29.5-131.5,25.2-195.5-7.3c-2-1-3.8-2.2-5.8-3.3
					c-5-2.9-6.9-8.4-4.3-13c2.6-4.7,8-6.2,13.3-3.2c13.1,7.3,26.8,13.7,41.2,17.9c60.9,18,118.7,10.7,172.3-23.2
					c51.2-32.4,81.6-79.5,92.7-138.8c15.2-81.6-24.3-168.3-95.7-211.2c-1.5-0.9-3-1.7-4.4-2.6c-4.7-3.1-6.1-8.3-3.5-12.9
					c2.4-4.4,8-6,12.9-3.2c12.1,6.8,23.3,14.8,33.8,23.9c40.9,35.4,65.7,80,75.4,133.1C574.4,449,575.3,461.8,575.6,474.9z"/>
			</g>
			<g>
				<path class="st1" d="M545.8,473.7c-0.9,49.9-16.8,93.8-49.9,130.7c-33.4,37.3-75.3,59.9-125.1,64.1
					c-80.9,6.8-143.9-24.9-188.1-93.4c-1.1-1.7-2.2-3.5-2.7-5.4c-1.2-4.5,1.2-9.1,5.4-10.9c4.3-1.8,9-0.2,11.7,4.4
					c11.7,19.5,26.2,36.6,44.2,50.6c15.1,11.7,31.6,20.7,49.5,27.2c22.8,8.4,46.4,11.6,70.5,9.9c54.5-3.9,98.3-28.1,131.1-71.6
					c24-31.9,35.1-68.4,34.6-108.2c-0.3-29.7-8.1-57.5-22.6-83.4c-3.7-6.5-2.5-12.3,3-14.9c4.8-2.3,9.5-0.8,12.5,4.6
					c10.2,18.5,18,37.9,22,58.8C544.4,448.7,545.4,461.5,545.8,473.7z"/>
			</g>
			<g>
				<path class="st1" d="M344.8,640.6c-52.8-1.8-99.1-25.6-132.2-73.4c-18.4-26.5-27.5-56.4-28.5-88.7c0-1.4-0.1-2.7,0-4.1
					c0.4-5.6,4.3-9.5,9.4-9.5c5.3,0,9.2,3.7,9.4,9.4c0.3,9.1,0.9,18.1,2.6,27C217,560.6,261.3,606,320.1,618.5
					C397.5,635,473.8,586.8,493.3,509c2.7-10.8,3.9-21.8,4.1-33c0.1-7.1,3.8-11.3,9.8-11.1c5.7,0.2,9.4,4.3,9.1,11.3
					c-2.7,64.6-31.8,113.1-88.3,144.7C403.8,634.4,377.6,640.3,344.8,640.6z"/>
			</g>
			<g>
				<path class="st1" d="M349.6,610.7c-66.8-0.2-122.9-48-134-114.3c-5.2-31.2,0.2-60.7,15.2-88.4c3.4-6.4,8.6-8.4,13.8-5.5
					c4.9,2.7,6,8,2.6,14.3c-7.3,13.5-12,27.7-14,42.9c-6.2,47.6,18.1,95.1,60.7,118.1c55.6,30.1,124.1,11.5,157.2-42.7
					c1.9-3,3.9-5.7,7.5-6.5c5.8-1.3,11.4,3.8,10.8,9.7c-0.3,2.6-1.4,4.9-2.8,7.1c-23.5,37.1-57,58.6-100.6,64.3
					C360.5,610.5,355.1,610.7,349.6,610.7z"/>
			</g>
			<g>
				<path class="st1" d="M350.2,562.5c14.1,0.2,27.4-3,39.8-9.5c2.9-1.5,5.9-2.2,8.9-3c3.3-1,6.3,1.1,8,4.1
					c2.1,3.6,1.8,7.2-0.7,10.5c-1.4,1.8-3.4,2.9-5.4,3.9c-10.7,5.1-21.8,8.6-33.7,10.8c-22.5,4.2-43.3,0.6-63.4-8.8
					c-21.6-10.1-37.9-26.1-48.6-47.3c-13.8-27.6-16.2-56.3-5.3-85.3c5.4-14.3,13.6-28,24.2-39.3c6.4-6.7,26.9-28.1,35.3-13.7
					c3.1,5.4-1.3,11.2-5.6,14.2c-5.7,4-11.3,8.1-16.3,13c-3.5,3.4-6.7,7.1-9.5,11c-6.6,9.1-11.2,19.5-13.6,30.4
					c-2.2,9.7-2.7,19.7-2,29.6c2.6,38,34.6,72,72.6,78.1C340,562.1,345,562.5,350.2,562.5z"/>
			</g>
			<g>
				<path class="st1" d="M273,474c0.2-41.8,33.4-76.1,74.6-76.9c3.3-0.1,6.7-0.1,8.9,2.8c2.1,2.7,3.6,5.7,2,9.4
					c-1.7,3.9-4.5,5.7-8.7,5.9c-22.1,1-39.2,10.5-50.6,29.6c-21.3,35.6,1.9,82.7,43.1,87.9c2.4,0.3,4.8,0.5,7.1,0.7
					c6.2,0.4,10,4.1,9.7,9.5c-0.2,5.4-4.2,8.8-10.6,8.6c-26.2-0.7-46.9-12-62-33.2C277.2,504.9,272.9,490.2,273,474z"/>
			</g>
		</g>
	</g>
</g>
</svg>
